<?xml version="1.0" encoding="UTF-8"?>
<svg version="1.1" xmlns="http://www.w3.org/2000/svg" width="90" height="90">
<path d="M0 0 C3.58598889 2.54054385 6.15992797 5.04327701 8.4921875 8.765625 C8.90210938 9.38695312 9.31203125 10.00828125 9.734375 10.6484375 C13.58244889 17.62804738 13.74273274 26.02607545 12.4921875 33.765625 C10.09120579 41.34186763 6.27912589 47.51322792 -0.5078125 51.765625 C-1.12914062 52.17554688 -1.75046875 52.58546875 -2.390625 53.0078125 C-9.37023488 56.85588639 -17.76826295 57.01617024 -25.5078125 55.765625 C-33.08405513 53.36464329 -39.25541542 49.55256339 -43.5078125 42.765625 C-43.91773438 42.14429688 -44.32765625 41.52296875 -44.75 40.8828125 C-48.59807389 33.90320262 -48.75835774 25.50517455 -47.5078125 17.765625 C-45.10683079 10.18938237 -41.29475089 4.01802208 -34.5078125 -0.234375 C-33.88648438 -0.64429688 -33.26515625 -1.05421875 -32.625 -1.4765625 C-22.455808 -7.08315125 -9.72162164 -5.63801363 0 0 Z M-30.3828125 17.890625 C-32.07265501 22.20911142 -32.16742233 26.1923302 -31.5078125 30.765625 C-29.34482413 35.17171243 -27.11100771 37.9643747 -22.5078125 39.765625 C-17.46455866 40.44988557 -13.67704366 40.3396112 -9.0703125 38.078125 C-5.71125238 35.04677806 -3.81425619 33.02422852 -3.19140625 28.43359375 C-2.92567598 22.71610691 -3.53934098 19.16312047 -7.5078125 14.765625 C-11.34494446 11.37992033 -15.14182712 11.25271328 -20.0703125 11.4140625 C-24.73307396 12.08657617 -27.35971542 14.46444831 -30.3828125 17.890625 Z " fill="#000000" transform="translate(62.5078125,13.234375)"/>
<path d="M0 0 C3.5983871 0.76711759 7.12260507 0.84375 10.78515625 0.84375 C11.48302246 0.84375 12.18088867 0.84375 12.89990234 0.84375 C16.73699118 0.78579067 20.16510582 0.40493091 23.84765625 -0.65625 C26.35984163 -1.36159436 27.39961762 -1.54579197 29.87890625 -0.6484375 C31.84765625 0.46875 31.84765625 0.46875 34.78515625 2.59375 C34.78515625 4.57375 34.78515625 6.55375 34.78515625 8.59375 C18.94515625 8.59375 3.10515625 8.59375 -13.21484375 8.59375 C-13.21484375 6.61375 -13.21484375 4.63375 -13.21484375 2.59375 C-8.10999311 -1.09912068 -5.95399832 -1.71573193 0 0 Z " fill="#000000" transform="translate(34.21484375,72.40625)"/>
<path d="M0 0 C-0.33 2.31 -0.66 4.62 -1 7 C2.62885324 7.15149298 2.62885324 7.15149298 6 6 C6.41668469 10.25018379 6.44022082 12.35342568 4 15.9375 C0.66476514 18.23047397 -1.10007055 18.76173735 -5.0625 18.4765625 C-8.61497432 17.60276841 -10.01078114 15.9838283 -12 13 C-12.69824523 10.16123251 -12.70378755 7.83803758 -12 5 C-8.56717773 0.00680397 -5.90329885 -0.57875479 0 0 Z " fill="#000000" transform="translate(48,30)"/>
</svg>
