<?xml version="1.0" standalone="no"?>
<!DOCTYPE svg PUBLIC "-//W3C//DTD SVG 20010904//EN"
 "http://www.w3.org/TR/2001/REC-SVG-20010904/DTD/svg10.dtd">
<svg version="1.0" xmlns="http://www.w3.org/2000/svg"
 width="300.000000pt" height="112.000000pt" viewBox="0 0 300.000000 112.000000"
 preserveAspectRatio="xMidYMid meet">
<metadata>
Created by potrace 1.10, written by Peter Selinger 2001-2011
</metadata>
<g transform="translate(0.000000,112.000000) scale(0.100000,-0.100000)"
fill="#000000" stroke="none">
<path d="M1284 845 c-15 -23 -15 -27 0 -50 27 -40 96 -25 96 21 0 55 -66 75
-96 29z"/>
<path d="M1630 851 c-14 -27 -13 -47 6 -65 24 -24 61 -20 80 9 15 23 15 27 0
50 -21 31 -70 35 -86 6z"/>
<path d="M1400 784 c0 -47 2 -54 14 -45 7 6 21 8 31 5 15 -6 16 -4 6 14 -6 11
-16 24 -21 27 -6 3 -10 17 -10 31 0 13 -4 24 -10 24 -5 0 -10 -25 -10 -56z"/>
<path d="M1580 818 c0 -14 -9 -33 -20 -43 -27 -25 -25 -30 10 -30 30 0 31 1
27 42 -4 47 -17 71 -17 31z"/>
<path d="M1267 732 c-23 -25 -24 -142 -2 -142 8 0 15 8 15 19 0 17 4 18 58 6
122 -27 122 -27 122 0 0 19 -8 28 -34 39 -18 7 -44 29 -57 47 -12 19 -28 37
-34 41 -18 14 -52 8 -68 -10z m82 -54 c15 -24 6 -38 -22 -33 -31 7 -49 33 -36
56 8 15 13 17 28 7 10 -6 23 -19 30 -30z"/>
<path d="M1636 709 c-16 -23 -42 -47 -62 -55 -25 -10 -34 -20 -34 -38 0 -22 1
-23 58 -14 31 5 72 13 90 18 28 7 32 6 32 -11 0 -10 7 -19 15 -19 21 0 21 107
-1 138 -26 37 -66 29 -98 -19z m72 -11 c16 -16 -2 -44 -33 -52 -42 -11 -49 3
-19 35 31 32 35 34 52 17z"/>
<path d="M1475 702 c-3 -3 -5 -29 -5 -59 0 -50 1 -53 25 -53 22 0 25 4 27 40
1 22 2 48 2 58 1 16 -36 27 -49 14z"/>
<path d="M1290 391 c0 -67 0 -124 0 -128 0 -5 8 -8 18 -8 10 0 16 6 14 14 -3
16 17 61 27 61 3 0 19 -18 35 -40 20 -27 38 -40 53 -40 13 0 23 3 23 7 0 4
-18 28 -41 55 l-40 48 28 25 c15 13 31 25 36 25 4 0 7 7 7 15 0 28 -34 15 -82
-32 l-47 -46 2 79 c2 68 0 79 -15 82 -16 3 -18 -8 -18 -117z"/>
<path d="M1470 507 c0 -4 75 -175 100 -230 26 -53 48 -33 107 96 29 65 53 123
53 129 0 5 -10 8 -21 6 -17 -2 -31 -25 -62 -100 -23 -53 -43 -95 -46 -93 -2 3
-23 46 -46 97 -32 71 -47 94 -63 96 -12 2 -22 1 -22 -1z"/>
<path d="M555 415 c-22 -21 -25 -33 -25 -95 0 -63 2 -70 20 -70 18 0 20 7 20
63 0 67 10 87 45 87 35 0 45 -20 45 -87 0 -56 2 -63 20 -63 18 0 20 7 20 64 0
72 14 92 55 82 26 -7 27 -10 29 -91 1 -42 4 -50 20 -50 18 0 19 7 17 70 -1 61
-5 73 -27 93 -29 25 -71 29 -99 8 -17 -12 -22 -12 -39 0 -31 22 -74 17 -101
-11z"/>
<path d="M914 430 c-50 -20 -71 -101 -39 -147 20 -29 75 -46 107 -34 55 21 84
92 58 142 -12 22 -61 49 -87 48 -10 0 -28 -4 -39 -9z m78 -47 c24 -21 23 -58
-2 -83 -24 -24 -38 -25 -68 -4 -26 18 -29 60 -5 86 20 22 51 23 75 1z"/>
<path d="M1140 433 c-48 -18 -72 -80 -50 -132 10 -25 61 -61 85 -61 19 0 75
34 75 46 0 22 -19 26 -42 10 -30 -21 -44 -20 -68 4 -53 53 16 134 72 83 14
-12 21 -14 30 -5 33 33 -46 76 -102 55z"/>
<path d="M1778 423 c-104 -65 -16 -216 98 -168 46 19 36 39 -16 30 -39 -7 -80
7 -80 25 0 6 32 10 70 10 l70 0 0 31 c0 40 -48 89 -87 89 -15 0 -40 -8 -55
-17z m90 -35 c26 -26 13 -38 -43 -38 -59 0 -64 4 -38 32 18 20 63 24 81 6z"/>
<path d="M1965 431 c-3 -2 -5 -44 -5 -93 0 -81 2 -88 20 -88 18 0 20 7 20 70
0 68 1 70 28 76 47 10 54 14 49 27 -3 11 -102 19 -112 8z"/>
<path d="M2122 424 c-24 -17 -30 -65 -9 -82 6 -5 36 -13 65 -17 55 -7 62 -14
36 -36 -13 -10 -24 -10 -61 -1 -51 14 -63 10 -47 -16 12 -18 79 -28 121 -17
36 9 50 48 29 80 -13 19 -25 25 -54 25 -43 0 -68 13 -57 30 4 7 26 10 58 8 57
-3 76 15 32 32 -38 15 -87 12 -113 -6z"/>
<path d="M2334 422 c-32 -26 -47 -60 -40 -96 12 -64 79 -98 142 -71 29 12 34
18 25 29 -9 11 -18 12 -41 3 -21 -8 -35 -8 -54 1 -45 20 -29 32 44 32 l70 0 0
31 c0 69 -93 114 -146 71z m94 -34 c26 -26 13 -38 -43 -38 -59 0 -64 4 -38 32
18 20 63 24 81 6z"/>
</g>
</svg>
